<svg width="24" height="36" viewBox="0 0 36 36" fill="none" xmlns="http://www.w3.org/2000/svg">
<mask id="mask0_3405_8554" style="mask-type:alpha" maskUnits="userSpaceOnUse" x="0" y="0" width="36" height="36">
<path d="M22 36L9.27125 30.2142C4.63573 28.1072 1.36254 23.9353 0.339257 19.0772C0.117179 18.087 0 17.0572 0 16V14C0 6.26801 6.26801 0 14 0H22C29.732 0 36 6.26801 36 14V16C36 23.732 29.732 30 22 30V36Z" fill="white"/>
</mask>
<g mask="url(#mask0_3405_8554)">
<path d="M22 36L9.27125 30.2142C4.63573 28.1072 1.36254 23.9353 0.339257 19.0772C0.117179 18.087 0 17.0572 0 16V14C0 6.26801 6.26801 0 14 0H22C29.732 0 36 6.26801 36 14V16C36 23.732 29.732 30 22 30V36Z" fill="#0057FF"/>
<path d="M8.63989 13.8652C8.63989 13.3185 8.97274 12.8269 9.48035 12.6238L10.9029 12.0548C11.7612 11.7115 12.7186 11.7115 13.5769 12.0548L14.9994 12.6238C15.507 12.8269 15.8399 13.3185 15.8399 13.8652C15.8399 14.8111 14.8846 15.4579 14.0063 15.1066L13.0071 14.7069C12.5146 14.5099 11.9652 14.5099 11.4727 14.7069L10.4735 15.1066C9.59522 15.4579 8.63989 14.8111 8.63989 13.8652Z" fill="white"/>
<path d="M20.1602 13.8652C20.1602 13.3185 20.493 12.8269 21.0006 12.6238L22.4231 12.0548C23.2814 11.7115 24.2389 11.7115 25.0972 12.0548L26.5197 12.6238C27.0273 12.8269 27.3602 13.3185 27.3602 13.8652C27.3602 14.8111 26.4048 15.4579 25.5266 15.1066L24.5273 14.7069C24.0348 14.5099 23.4855 14.5099 22.993 14.7069L21.9937 15.1066C21.1155 15.4579 20.1602 14.8111 20.1602 13.8652Z" fill="white"/>
<ellipse cx="18" cy="31.275" rx="13.095" ry="8.685" fill="url(#paint0_linear_3405_8554)"/>
</g>
<defs>
<linearGradient id="paint0_linear_3405_8554" x1="18" y1="22.59" x2="18" y2="39.96" gradientUnits="userSpaceOnUse">
<stop stop-color="#2771FF"/>
<stop offset="1" stop-color="#0057FF"/>
</linearGradient>
</defs>
</svg>
